<svg xmlns="http://www.w3.org/2000/svg" width="15.499" height="10.896" viewBox="0 0 15.499 10.896"> <path d="M14107.522-7300.013a.746.746,0,0,1,0-1.059l4.165-4.169-4.165-4.169a.746.746,0,0,1,0-1.059.747.747,0,0,1,1.06,0l4.7,4.7a.761.761,0,0,1,.219.531.762.762,0,0,1-.219.531l-4.7,4.7a.737.737,0,0,1-.532.22A.734.734,0,0,1,14107.522-7300.013Zm-8.773-4.527a.747.747,0,0,1-.747-.748.748.748,0,0,1,.747-.75h10.633a.748.748,0,0,1,.748.75.748.748,0,0,1-.748.748Z" transform="translate(-14098.002 7310.689)" fill="#1ba1e6"></path> </svg>